<?xml version="1.0" encoding="UTF-8" standalone="no"?>
<!-- Created with Inkscape (http://www.inkscape.org/) -->

<svg
   xmlns:dc="http://purl.org/dc/elements/1.1/"
   xmlns:cc="http://creativecommons.org/ns#"
   xmlns:rdf="http://www.w3.org/1999/02/22-rdf-syntax-ns#"
   xmlns:svg="http://www.w3.org/2000/svg"
   xmlns="http://www.w3.org/2000/svg"
   xmlns:sodipodi="http://sodipodi.sourceforge.net/DTD/sodipodi-0.dtd"
   xmlns:inkscape="http://www.inkscape.org/namespaces/inkscape"
   width="820"
   height="820"
   viewBox="0 0 216.95834 216.95835"
   version="1.1"
   id="svg8"
   inkscape:version="0.92.4 (5da689c313, 2019-01-14)"
   sodipodi:docname="shap-visible.svg"
   style="enable-background:new">
  <defs
     id="defs2">
    <inkscape:perspective
       sodipodi:type="inkscape:persp3d"
       inkscape:vp_x="0 : 148.50001 : 1"
       inkscape:vp_y="0 : 1000 : 0"
       inkscape:vp_z="210.00001 : 148.5 : 1"
       inkscape:persp3d-origin="105 : 99.000005 : 1"
       id="perspective3834" />
  </defs>
  <sodipodi:namedview
     id="base"
     pagecolor="#000000"
     bordercolor="#ff0000"
     borderopacity="1"
     inkscape:pageopacity="0"
     inkscape:pageshadow="2"
     inkscape:zoom="0.7"
     inkscape:cx="137.8136"
     inkscape:cy="478.85276"
     inkscape:document-units="mm"
     inkscape:current-layer="layer4"
     showgrid="false"
     showguides="false"
     inkscape:window-width="1920"
     inkscape:window-height="1018"
     inkscape:window-x="0"
     inkscape:window-y="25"
     inkscape:window-maximized="1"
     units="px"
     inkscape:pagecheckerboard="false"
     showborder="true"
     borderlayer="true"
     inkscape:showpageshadow="false">
    <inkscape:grid
       type="xygrid"
       id="grid3730"
       originx="-8.119088"
       originy="-41.100269" />
  </sodipodi:namedview>
  <metadata
     id="metadata5">
    <rdf:RDF>
      <cc:Work
         rdf:about="">
        <dc:format>image/svg+xml</dc:format>
        <dc:type
           rdf:resource="http://purl.org/dc/dcmitype/StillImage" />
        <dc:title />
      </cc:Work>
    </rdf:RDF>
  </metadata>


    <g fill="none" fill-rule="evenodd" transform="translate(1 1)" stroke-width="1" stroke="#00ffff">
        <circle cx="18" cy="18" r="1" fill="#00FFFF">
            <animate attributeName="r"
                begin="0s" dur="3s"
                values="1; 18"
                calcMode="spline"
                keyTimes="0; 1"
                keySplines="0.165, 0.84, 0.44, 1"
                repeatCount="indefinite" />
            <animate attributeName="stroke-opacity"
                begin="0s" dur="3s"
                values="1; 0"
                calcMode="spline"
                keyTimes="0; 1"
                keySplines="0.3, 0.61, 0.355, 1"
                repeatCount="indefinite" />
            <animate attributeName="opacity"
                begin="0s" dur="3s"
                values="1; 0"
                calcMode="spline"
                keyTimes="0; 1"
                keySplines="0.3, 0.61, 0.355, 1"
                repeatCount="indefinite" />
        </circle>
        <circle cx="18" cy="18" r="1" fill="#d81059" stroke="#d81059">
            <animate attributeName="r"
                begin="-1.5s" dur="3s"
                values="1; 18"
                calcMode="spline"
                keyTimes="0; 1"
                keySplines="0.165, 0.84, 0.44, 1"
                repeatCount="indefinite" />
            <animate attributeName="stroke-opacity"
                begin="-1.5s" dur="3s"
                values="1; 0"
                calcMode="spline"
                keyTimes="0; 1"
                keySplines="0.3, 0.61, 0.355, 1"
                repeatCount="indefinite" />
            <animate attributeName="opacity"
                begin="-1.5s" dur="3s"
                values="1; 0"
                calcMode="spline"
                keyTimes="0; 1"
                keySplines="0.3, 0.61, 0.355, 1"
                repeatCount="indefinite" />
        </circle>
    </g>


  <g
     inkscape:label="objs"
     inkscape:groupmode="layer"
     id="layer1"
     style="display:inline"
     transform="translate(-8.1190879,-38.941393)">
    <g
       inkscape:groupmode="layer"
       id="layer4"
       inkscape:label="keys">
      <path
         style="display:inline;fill:#f4e3d7;fill-opacity:1;stroke-width:0.13363476"
         d="m 211.32068,107.29009 c 0.54773,-0.81743 -4.3894,-2.43325 -5.74036,-2.79769 -1.42806,-0.38524 -6.5798,-0.0234 -6.92006,0.37742 -2.89867,1.1096 -3.41262,1.62255 -6.93161,4.34485 -1.36852,1.0587 -1.79428,3.18917 -2.13808,3.96639 -0.31493,0.71195 -0.22819,1.13876 0.32659,1.60558 0.48659,0.40944 0.81996,0.54928 1.89756,0.79685 1.0103,0.23212 2.34825,1.42285 2.49806,1.15392 0.2113,-0.37928 2.53757,-2.57753 2.7346,-2.65904 0.11025,-0.0456 1.64893,-1.59533 1.94293,-1.77713 0.97572,-0.60334 1.40247,-0.62732 2.38979,1.38029 1.12798,1.16309 2.61425,2.7736 2.55003,2.47507 -0.0292,-0.13589 5.90692,-2.51094 5.79255,-4.38516 -1.5773,-1.55414 -4.10112,-4.11305 -3.33265,-4.31906 1.57817,-0.42307 4.26732,0.82765 4.93065,-0.16229 z"
         id="path3785"
         inkscape:connector-curvature="0"
         inkscape:label="lhand-keys-wthumb"
         sodipodi:nodetypes="sscccccccccccss" />
      <path
         style="display:inline;fill:#00ffff;fill-opacity:1;fill-rule:evenodd;stroke:none;stroke-width:0.2;stroke-miterlimit:4;stroke-dasharray:none;stroke-opacity:1"
         d="m 209.13516,109.21595 c -0.49503,-0.009 -0.97543,0.0477 -1.45081,0.14954 -2.70019,0.11261 -7.14921,4.12482 -6.96846,8.73968 0.18061,4.61469 3.00143,7.90293 7.62916,7.72203 1.79267,-0.0423 5.22437,-2.43499 6.19701,-4.2162 0.51718,-0.94713 0.9474,-2.55763 1.07849,-4.26158 0.0395,-0.8577 -0.0364,-4.96452 -1.73001,-5.90613 -0.0937,-0.0521 -0.39258,0.43964 -0.39258,0.43964 l -1.10321,-0.91076 c 0,0 0.39567,-0.45529 0.33097,-0.50808 -1.34066,-0.88679 -2.50152,-1.22757 -3.59055,-1.24811 z m -1.73978,1.10591 c 0.12377,0.009 0.25339,0.0214 0.38901,0.0381 0.7271,0.0891 1.71178,1.3783 1.71178,1.3783 0,0 -0.037,0.05 -0.0457,0.0624 1.02437,0.023 1.74203,0.15835 1.99082,0.43861 l 0.43304,-0.52761 1.09599,0.93842 c 0,0 -0.45536,0.54878 -0.3945,0.56263 0.22623,0.0514 0.88544,1.78641 0.97364,4.03503 -0.38483,3.70211 -1.88441,5.86646 -5.73667,6.08754 -2.59132,-0.32398 -4.56135,-1.3517 -4.7204,-5.40936 0.0423,-0.6666 0.10603,-1.42601 0.4473,-2.00746 0.15125,-0.25771 -0.005,-1.09226 0.004,-1.42188 0.0393,-1.47596 0.93394,-2.5637 1.77077,-3.34091 0.73339,-0.65504 1.21452,-0.89356 2.08093,-0.83382 z"
         id="path1191"
         inkscape:connector-curvature="0"
         sodipodi:nodetypes="ccccscccccccccccccccccssccc"
         inkscape:label="chain" />
      <path
         style="display:inline;fill:#d81159;fill-opacity:1;fill-rule:evenodd;stroke:none;stroke-width:0.30000001;stroke-miterlimit:4;stroke-dasharray:none;stroke-opacity:1"
         d="m 205.66452,121.49809 c -2.00301,0.068 -3.63988,1.45997 -3.73851,3.25619 -0.0852,1.55446 1.00805,2.93406 2.58923,3.46347 l 0.30623,1.07824 -0.85216,10.59349 -2.05852,0.92359 -0.66883,-0.003 c 0,0 -0.1945,-0.11118 -0.32241,-0.21862 -0.12792,-0.10743 -2.30524,-0.0602 -2.30524,-0.0602 0,0 -0.26808,1.22302 -0.13467,1.23039 0.13345,0.007 0.89844,0.0835 0.89844,0.0835 l 0.45957,-0.443 c 0,0 0.63171,0.0678 0.79297,0.17705 0.16128,0.10926 0.1412,0.4763 0.30799,0.4855 0.16679,0.009 1.1381,-0.004 1.1381,-0.004 l 0.394,-0.48026 1.0788,0.1597 -0.1475,1.76561 -1.26408,-0.13701 -0.30748,-0.48554 -1.06399,-0.12517 -0.29272,0.45202 -0.80072,-0.0443 -0.21104,-0.41326 -1.06222,-0.15881 -0.0435,1.40321 2.49032,0.33801 0.18776,-0.35795 0.56698,0.0312 0.17247,0.51149 1.4811,0.13216 -0.4213,4.30983 1.65824,0.25869 1.78252,-19.57598 0.25524,-0.98943 0.59301,-0.47499 c 1.85599,-0.72542 2.49197,-2.17831 2.4465,-2.62043 -0.35678,0.12436 -1.22689,0.2712 -1.22689,0.2712 -0.55769,1.00275 -1.54407,1.33705 -2.57448,1.33138 -1.50896,-0.0829 -2.6704,-0.9681 -2.60362,-2.18604 0.0399,-0.79597 1.03472,-2.0353 1.93353,-2.10251 0.38746,-0.0131 0.75168,0.53572 1.04855,0.61857 0.40822,-0.0932 0.76071,-0.65415 1.28295,-0.40159 0.12154,0.0796 0.44283,0.24152 0.44283,0.24152 0.67611,0.0288 1.39625,-0.17811 1.39625,-0.17811 -0.664,-0.94293 -1.85076,-1.57754 -3.19843,-1.65153 -0.13646,-0.007 -0.27157,-0.008 -0.40509,-0.004 z"
         id="path1204"
         inkscape:connector-curvature="0"
         sodipodi:nodetypes="cccccccccccccccccccccccccccccccccccccccccccscccc"
         inkscape:label="key-lg" />
      <path
         style="display:inline;fill:#f86624;fill-opacity:1;fill-rule:evenodd;stroke:none;stroke-width:0.253185;stroke-miterlimit:4;stroke-dasharray:none;stroke-opacity:1"
         d="m 207.33755,122.02938 c -1.68463,0.44115 -2.81329,1.86851 -2.5635,3.3214 0.21632,1.25732 1.39873,2.14743 2.83682,2.26459 l 0.45959,0.80157 1.24403,8.62091 -1.57289,1.1349 -0.56736,0.12643 c 0,0 -0.18544,-0.0513 -0.31377,-0.11225 -0.12834,-0.0611 -1.9645,0.39721 -1.9645,0.39721 0,0 -1.5e-4,1.02808 0.11417,1.00818 0.11442,-0.0199 0.77679,-0.10687 0.77679,-0.10687 l 0.3072,-0.4424 c 0,0 0.54787,-0.0679 0.7048,-0.0119 0.15691,0.0561 0.20803,0.35294 0.35106,0.32807 0.14312,-0.0243 0.96363,-0.22297 0.96363,-0.22297 l 0.24472,-0.45949 0.94376,-0.0809 0.2027,1.43791 -1.09656,0.13481 -0.35065,-0.32822 -0.92482,0.10551 -0.16413,0.41736 -0.68672,0.1193 -0.25553,-0.28912 -0.92953,0.0785 0.22365,1.12849 2.17292,-0.21121 0.0927,-0.322 0.48611,-0.0851 0.24108,0.37498 1.27954,-0.18061 0.44291,3.52175 1.45312,-0.11382 -2.12281,-15.97094 0.0327,-0.83911 0.41434,-0.4937 c 1.43803,-0.93758 1.70729,-2.2202 1.5867,-2.56435 -0.27924,0.16819 -0.98927,0.45348 -0.98927,0.45348 -0.28646,0.90817 -1.06024,1.36556 -1.93439,1.56006 -1.29401,0.22528 -2.44244,-0.25697 -2.61191,-1.24209 -0.11423,-0.64305 0.49905,-1.82454 1.24816,-2.05184 0.3259,-0.0852 0.73636,0.28247 1.00331,0.29125 0.3286,-0.15327 0.52316,-0.66913 1.01258,-0.5684 0.1177,0.04 0.42004,0.10727 0.42004,0.10727 0.5782,-0.10792 1.15008,-0.41183 1.15008,-0.41183 -0.73766,-0.62445 -1.86103,-0.9018 -3.01671,-0.70053 -0.117,0.0205 -0.23151,0.0465 -0.34396,0.0752 z"
         id="path1401"
         inkscape:connector-curvature="0"
         sodipodi:nodetypes="cccccccccccccccccccccccccccccccccccccccccccscccc"
         inkscape:label="key-md" />
      <path
         inkscape:label="key-sm"
         sodipodi:nodetypes="cccccccccccccccccccccccccccccccccccccccccccscccc"
         inkscape:connector-curvature="0"
         id="path1405"
         d="m 208.50981,122.57976 c -1.19759,0.65585 -1.78477,1.95619 -1.31852,3.0139 0.40357,0.91529 1.47224,1.36757 2.58844,1.18328 l 0.50199,0.52237 2.58532,6.32122 -0.9807,1.16233 -0.40755,0.20401 c 0,0 -0.1508,-0.003 -0.26002,-0.0256 -0.10924,-0.0222 -1.41885,0.67564 -1.41885,0.67564 0,0 0.19533,0.78208 0.27854,0.74518 0.0833,-0.0368 0.57059,-0.22895 0.57059,-0.22895 l 0.14956,-0.39493 c 0,0 0.40386,-0.15577 0.53387,-0.14308 0.13,0.0127 0.22534,0.22891 0.32941,0.18282 0.10424,-0.0457 0.69062,-0.35282 0.69062,-0.35282 l 0.0988,-0.39605 0.70253,-0.24096 0.42755,1.05524 -0.80851,0.31101 -0.32912,-0.183 -0.68343,0.25609 -0.0455,0.34868 -0.49969,0.22133 -0.24935,-0.17133 -0.69214,0.23641 0.38468,0.81591 1.61273,-0.57378 0.009,-0.26254 0.35362,-0.15711 0.25467,0.23941 0.93898,-0.38061 1.00648,2.59471 1.08371,-0.36285 -4.65115,-11.74516 -0.13419,-0.64463 0.22132,-0.45432 c 0.91564,-0.9866 0.87659,-2.01344 0.71945,-2.25231 -0.18044,0.18104 -0.66632,0.53303 -0.66632,0.53303 -0.0452,0.74529 -0.54688,1.24032 -1.17484,1.55447 -0.9415,0.41739 -1.90678,0.26889 -2.22298,-0.44825 -0.20912,-0.46744 0.0328,-1.48278 0.55936,-1.79809 0.23171,-0.12675 0.61384,0.0748 0.81857,0.0308 0.22082,-0.17907 0.27076,-0.60846 0.66218,-0.62488 0.0972,0.009 0.33992,0.002 0.33992,0.002 0.41931,-0.19202 0.79654,-0.53192 0.79654,-0.53192 -0.67983,-0.33476 -1.58709,-0.33216 -2.42792,0.0407 -0.0851,0.0378 -0.16729,0.0793 -0.24736,0.12259 z"
         style="display:inline;fill:#fef1f6;fill-opacity:1;fill-rule:evenodd;stroke:none;stroke-width:0.19851667;stroke-miterlimit:4;stroke-dasharray:none;stroke-opacity:1" />
    </g>
    <path
       style="display:inline;fill:#d81159;fill-opacity:1;fill-rule:evenodd;stroke-width:0.32938686"
       id="path1075"
       sodipodi:type="arc"
       sodipodi:cx="27.225044"
       sodipodi:cy="57.982277"
       sodipodi:rx="8.8776922"
       sodipodi:ry="8.9581575"
       sodipodi:start="6.2830676"
       sodipodi:end="6.2827937"
       d="m 36.102736,57.981222 a 8.8776922,8.9581575 0 0 1 -8.876039,8.959212 8.8776922,8.9581575 0 0 1 -8.879345,-8.955876 8.8776922,8.9581575 0 0 1 8.874824,-8.960438 8.8776922,8.9581575 0 0 1 8.88056,8.954649"
       sodipodi:open="true"
       inkscape:label="staff-stone" />
    <path
       sodipodi:nodetypes="sccsccscsscsccccccccsccsccsscsccccscssccssssccs"
       inkscape:label="staff-new"
       inkscape:connector-curvature="0"
       id="path1051"
       d="m 19.641046,53.234079 c 0.896704,-1.997673 4.648957,-5.682784 4.648957,-5.682784 -1.105492,0.257897 -3.008315,2.087934 -4.948149,3.686734 0,0 -2.085515,5.342206 -3.560008,6.00254 0,0 3.674677,5.758648 2.642135,10.030316 3.425503,0.807503 7.398184,1.865947 7.345793,5.692215 1.336347,1.603617 1.93786,3.675072 2.071496,4.075976 0.08789,0.263679 2.183729,9.690836 2.183729,9.690836 0,0 -0.513133,5.179697 -0.513133,5.477023 0,0.868622 0.968726,7.917865 1.102361,8.452405 0.133635,0.53454 4.0759,21.64866 4.10931,22.38365 0.03341,0.73499 0.674764,6.3009 0.841809,6.96908 0.05074,0.20295 2.626443,4.17192 2.626443,4.17192 0,0 0.231437,12.84773 0.394264,13.80144 0.233866,1.36976 2.317827,16.0166 2.384647,17.21932 0.06682,1.20271 1.570472,11.09147 1.670699,11.69283 0.100229,0.60136 -0.567921,5.27873 -0.434285,7.04939 0.133633,1.77065 3.474411,12.49464 3.474411,12.49464 1.035899,5.91054 2.482167,13.72152 2.80603,18.70893 0.133633,2.00452 2.940365,14.59987 3.040592,14.93395 0.100227,0.33409 1.403196,6.34747 1.436605,7.2161 0.03341,0.86863 0.668124,3.50778 0.868577,3.37414 0.200451,-0.13363 0.500875,-5.04446 0.601102,-5.54559 0.100226,-0.50113 -0.952545,-6.98341 -1.141532,-9.44025 -0.188989,-2.45685 -1.037765,-6.26848 -1.226751,-8.44184 -0.188989,-2.17336 -3.401491,-21.73384 -3.590478,-22.77328 -0.08186,-0.45022 -3.322651,-9.41043 -3.248835,-11.0181 0.04504,-0.98096 0.769044,-4.59551 0.54423,-5.92069 -0.487262,-2.8722 -1.293,-8.22528 -1.358715,-9.04671 -0.188989,-2.36235 -3.023883,-18.42634 -3.401859,-20.5052 C 40.632515,145.9042 40.44323,133.7141 40.44323,133.7141 l -2.341193,-5.40861 -5.784245,-35.631298 0.600532,-5.14458 c 0,0 -2.993385,-12.458562 -3.27303,-14.2655 -0.434312,-2.806326 -0.267167,-3.441133 -0.267167,-3.441133 0,0 1.055506,-2.734127 4.679694,-3.589027 0,0 1.806155,-3.250774 1.977768,-4.726879 0.197302,-1.697061 1.384488,-2.789207 1.493909,-4.155449 l -1.130189,1.154378 c -0.563842,0.544297 -1.451363,2.765324 -2.080217,3.829323 -0.692293,1.171334 -3.019068,2.577574 -3.019068,2.577574 -2.060787,1.119061 -4.149679,-2.813712 -0.970725,-6.171311 0,0 -3.555641,-1.33726 -4.213081,-3.308111 0,0 -1.024271,2.584384 -1.924008,3.134877 0,0 7.212879,1.45715 2.056792,7.876874 -5.549747,-0.532957 -9.397962,-6.995591 -6.607956,-13.211149 z"
       style="display:inline;fill:#00ffff;fill-opacity:1;stroke:#00ffff;stroke-width:1;stroke-linecap:butt;stroke-linejoin:miter;stroke-miterlimit:4;stroke-dasharray:none;stroke-opacity:1" />
    <path
       style="display:inline;fill:#f4e3d7;fill-opacity:1;stroke:#000000;stroke-width:0;stroke-linecap:butt;stroke-linejoin:miter;stroke-miterlimit:4;stroke-dasharray:none;stroke-opacity:1"
       d="m 31.759893,104.09479 c -0.151906,0.007 -0.293898,0.0306 -0.410828,0.0724 -0.467721,0.16704 -0.601076,0.36753 -0.901754,0.76843 -0.300679,0.40089 -0.301066,2.67243 -0.167431,4.24263 0.133634,1.57021 0.4677,2.17169 1.2361,4.41007 0.7684,2.23838 2.004529,2.60604 2.004529,2.60604 l -0.600997,-3.44114 c 0,0 0.901806,-2.33898 1.102258,-3.40806 0.200452,-1.06907 -0.300783,-3.67478 -0.401009,-3.97546 -0.100226,-0.30067 -0.333909,-0.76815 -0.634587,-1.00201 -0.225508,-0.17539 -0.770566,-0.29477 -1.226281,-0.27285 z m 2.565218,0.25528 2.168859,12.67933 c 0,0 1.169624,0.50106 2.539381,0.36742 1.369756,-0.13363 2.973232,-0.5011 3.407543,-0.56792 0.434313,-0.0668 0.701381,-0.20049 1.20251,-0.10026 0.501134,0.10022 3.875733,0.60152 3.875733,0.60152 l 0.367419,-7.48379 c -0.534535,0.26728 -2.605889,0.53455 -3.340881,0 -0.734991,-0.53453 -1.737627,-1.67038 -3.408061,-2.47219 -1.670433,-0.80181 -5.07778,-2.60557 -5.946406,-2.80603 -0.868625,-0.20045 -0.866097,-0.21808 -0.866097,-0.21808 z"
       id="path5348"
       inkscape:connector-curvature="0"
       inkscape:label="rhand" />
    <path
       style="display:inline;fill:#f4e3d7;fill-opacity:1;stroke:#000000;stroke-width:0;stroke-linecap:butt;stroke-linejoin:miter;stroke-miterlimit:4;stroke-dasharray:none;stroke-opacity:1"
       d="m 110.08194,121.28255 c -0.26726,-1.06908 -1.93967,-6.89782 -1.80603,-9.83778 0.13363,-2.93997 1.33913,-7.91294 2.14093,-9.24929 0.80181,-1.33635 3.08425,-1.97071 3.08425,-1.97071 l 25.52285,-0.0768 c 0,0 3.26259,8.19111 3.25449,10.6491 0,0 0.41853,6.53722 -1.31875,8.40811 -1.73726,1.87088 -6.87884,2.13398 -6.87884,2.13398 l -19.71448,0.0486 z"
       id="path5359"
       inkscape:connector-curvature="0"
       sodipodi:nodetypes="cssccccccc"
       inkscape:label="face" />
    <path
       style="display:inline;fill:#00ffff;fill-opacity:1;stroke:#000000;stroke-width:0;stroke-linecap:butt;stroke-linejoin:miter;stroke-miterlimit:4;stroke-dasharray:none;stroke-opacity:1"
       d="m 136.92187,46.496279 -17.60258,20.070896 c -2.78619,2.666387 -5.16619,9.693051 -4.77481,11.192054 0.0853,0.32679 3.10424,-0.690137 4.37372,-1.023245 0,0 -4.39994,2.766317 -4.39142,3.234813 0.0945,5.197171 0.0945,6.118488 0.0945,6.118488 0,0 -0.18898,1.511906 -1.03943,2.078869 -0.85045,0.566965 -2.45684,1.511905 -5.10268,2.362353 -2.64583,0.850445 -19.654755,5.291667 -19.654755,5.291667 0,0 -5.669643,1.511903 -6.709077,2.645833 -1.039436,1.133934 -0.377978,1.511904 -0.377978,1.511904 0,0 2.976837,1.982129 8.979019,3.224799 3.277993,0.67866 8.703572,1.79707 9.572971,1.70888 0.45555,-0.0462 5.14794,-2.96708 6.84097,-3.44296 0.46938,-0.13194 -5.02012,3.68548 -4.03632,3.80096 0.6097,0.0716 15.87401,1.13393 20.7877,1.03943 4.91369,-0.0945 14.45759,-1.13392 18.70982,-1.70089 4.25223,-0.56696 15.68601,-3.96875 20.31622,-6.236619 4.63021,-2.267858 8.40997,-5.338913 8.31548,-6.000372 -0.0945,-0.661458 -3.82701,-1.370163 -7.55953,-1.795385 -1.61581,-0.18408 -5.58795,-0.261016 -6.45869,-0.324658 -1.15178,-0.08418 -3.99651,2.174483 -4.63975,1.851869 0,0 2.73099,-1.983375 1.81971,-1.96879 -1.31825,0.0211 -4.53124,-0.280732 -5.27335,-0.503364 -1.88988,-0.566966 -2.50409,-0.188989 -6.89807,-1.748139 -4.39397,-1.559153 -7.0398,-6.189361 -7.32328,-6.898066 -0.28349,-0.708705 -0.73233,-1.27567 -1.18118,-2.740329 -0.44884,-1.464657 -0.68508,-2.29148 -0.82682,-3.850632 -0.14174,-1.55915 -0.27139,-8.875953 -0.0709,-9.410491 0.20046,-0.534541 1.96082,-10.055283 2.07894,-10.456881 0.11811,-0.401601 2.07887,-6.709079 2.05524,-7.06343 -0.0236,-0.354354 -0.0236,-0.968566 -0.0236,-0.968566 z"
       id="path4671"
       inkscape:connector-curvature="0"
       inkscape:label="hat"
       sodipodi:nodetypes="ccsscccscscsssssccccscsscccsccccc" />
    <path
       style="display:inline;fill:#00ffff;fill-opacity:1;stroke:#000000;stroke-width:0;stroke-linecap:butt;stroke-linejoin:miter;stroke-miterlimit:4;stroke-dasharray:none;stroke-opacity:1"
       d="m 81.696022,117.46366 c 0,0 12.160763,0.13363 14.566188,-0.13364 2.405428,-0.26727 9.341,-0.38498 11.74643,-0.38498 2.40543,0 6.2484,0.50212 8.38656,0.63575 2.13815,0.13364 16.5355,0.95166 18.27275,0.68439 1.73726,-0.26727 6.9328,-0.67489 9.33823,-0.40762 2.40542,0.26727 8.11536,0.67489 11.05532,0.54125 2.93997,-0.13363 6.82304,-0.38313 10.55715,-2.00452 5.07812,-2.20498 19.82007,-6.68068 22.20309,-8.7148 1.5226,-1.29967 2.94552,-0.84374 3.51249,-0.56025 1.18492,0.59247 1.62261,2.68776 1.90609,3.44371 0.28349,0.75595 1.32292,8.59896 1.41741,10.20536 0.0945,1.6064 1.13393,14.83557 1.03944,17.95387 -0.0945,3.1183 -0.90029,10.49681 -1.23437,12.23407 -0.33409,1.73725 -0.53454,6.70548 -1.46999,8.37591 -0.79412,1.46874 -1.46997,3.27405 -1.46997,3.27405 -1.26954,-0.26726 -4.00905,-2.20497 -5.47903,-4.00904 -1.46998,-1.80407 -5.39125,-6.85649 -6.7276,-8.19283 -1.33635,-1.33635 -6.88219,-5.61266 -6.88219,-5.61266 0,0 -5.54584,-3.74178 -8.35217,-4.87767 -2.80633,-1.1359 -8.68626,-3.74177 -9.55489,-3.74177 -0.86862,0 -3.34087,-0.46773 -4.40995,-0.0668 -1.06907,0.4009 -1.60361,1.13589 -1.87088,1.5368 -0.26727,0.4009 -0.13364,11.29213 -0.0668,12.22758 0.0668,0.93544 2.02745,24.79644 2.29472,25.86552 0.26726,1.06907 2.22835,15.62003 4.02373,22.5181 2.63002,16.40459 11.70146,24.01372 16.36368,38.05703 0.37798,1.03943 4.06325,13.32366 4.06325,13.32366 0,0 0.28225,0.67892 0.16532,0.77915 -0.0679,0.0582 -17.07941,-3.19395 -27.54768,-3.30119 -11.2117,-0.11486 -19.63281,0.64503 -37.6913,3.53455 -8.57162,1.63211 -32.765408,-3.02299 -32.765408,-3.02299 0,0 -0.283975,0.0501 -0.250566,-0.3842 0.03341,-0.43431 0.334087,-1.46998 0.567949,-1.85418 0.23386,-0.3842 5.369218,-9.55055 5.469444,-9.95145 0.100225,-0.4009 6.247782,-18.53751 11.054634,-31.41624 7.759937,-19.9574 9.440267,-37.2123 7.814157,-57.55545 -0.20046,-2.00452 -0.53454,-3.27405 -1.46999,-4.34313 -0.935439,-1.06908 -2.204971,-2.80633 -4.810846,-2.60587 -2.605879,0.20045 -7.349914,2.3386 -7.349914,2.3386 0,0 -7.684,3.14042 -10.022607,3.74178 -2.338607,0.60135 -5.011303,0.8018 -7.550364,2.00452 -2.539061,1.20271 -5.412208,3.60814 -6.614919,5.0113 -1.202714,1.40317 -3.674957,5.61266 -4.209497,7.01582 -0.534538,1.40317 -3.407685,7.88446 -3.407685,7.88446 0,0 -0.388565,0.93096 -0.553929,0.24588 -0.165365,-0.68508 -4.913691,-14.76469 -6.142115,-20.05636 -1.22842,-5.29167 -3.496278,-15.49702 -3.874254,-18.80431 -0.377978,-3.30729 -1.27567,-7.27604 -1.039436,-10.29986 0.236236,-3.02381 0.944941,-8.50446 1.228423,-9.16592 0.283483,-0.66146 0.708705,-1.22842 1.322917,-1.32291 0.614211,-0.0945 1.13393,-0.47248 2.456846,-0.28349 1.322917,0.18899 4.488466,0.94494 5.575147,1.32292 1.086683,0.37798 14.977308,6.14211 16.536458,6.47284 1.559153,0.33073 9.880547,1.84499 9.880547,1.84499 z"
       id="path5361"
       inkscape:connector-curvature="0"
       inkscape:label="robe"
       sodipodi:nodetypes="csscsscsssccccccscccsccccccccsccscccccccccccccsssccssscc" />
    <path
       style="fill:#ffffff;fill-opacity:1;stroke:#000000;stroke-width:0;stroke-linecap:butt;stroke-linejoin:miter;stroke-miterlimit:4;stroke-dasharray:none;stroke-opacity:1"
       d="m 113.86532,161.968 c -0.37798,-1.70089 -1.03943,-26.9308 -0.66146,-31.93899 0.37798,-5.00818 2.07887,-12.94568 3.59078,-15.49702 1.5119,-2.55134 2.36235,-3.68527 4.34672,-4.7247 1.98438,-1.03944 4.44122,-1.32292 5.57515,-1.22842 1.13393,0.0945 3.49628,0.37797 5.48066,2.45684 1.98437,2.07887 3.1183,3.77976 3.68526,5.85863 0.56697,2.07887 1.51191,7.55953 1.6064,9.35491 0.0945,1.79539 0.60106,13.33096 0.4006,16.47138 -0.20045,3.14042 -1.06907,12.89575 -1.26953,14.43255 -0.20045,1.5368 -0.9737,6.23223 -1.16269,6.46847 -0.18899,0.23623 -0.7087,-0.28348 -1.13393,-0.8032 -0.42522,-0.51972 -1.27567,-0.94494 -1.46465,-0.42522 -0.18899,0.51971 0.0945,1.65364 -0.51972,2.50409 -0.61421,0.85044 -1.51191,1.84263 -1.84264,1.13393 -0.33072,-0.70871 -0.0945,-1.32292 -0.89769,-1.74814 -0.8032,-0.42523 -2.07887,0.42522 -2.07887,0.42522 0,0 -0.33073,-0.0236 -0.54334,0.8032 -0.21261,0.82682 -0.47247,1.03943 -0.75595,1.1103 -0.28348,0.0709 -0.59059,0.28349 -1.06306,-0.16536 -0.47247,-0.44885 -0.0945,-1.13393 -0.56696,-1.67727 -0.47247,-0.54334 -1.18118,-0.63784 -1.41741,-0.4016 -0.23624,0.23624 -0.47248,1.18117 -0.85045,1.32292 -0.37798,0.14174 -0.70871,-0.44885 -0.85045,-1.08668 -0.14174,-0.63784 -0.28348,-1.48828 -0.68508,-0.87408 -0.4016,0.61422 -0.94494,1.01582 -1.01581,1.72452 -0.0709,0.70871 -0.33073,1.44104 -0.68508,1.63003 -0.35436,0.18898 -0.54334,-0.16537 -0.73233,-0.51972 -0.18899,-0.35436 -0.66146,-1.74814 -0.73233,-2.33873 -0.0709,-0.59059 0.0236,-1.18118 -0.56696,-1.67727 -0.59059,-0.49609 -1.34654,-0.8032 -1.51191,-0.49609 -0.16536,0.3071 0.0709,0.94494 -0.14174,1.32291 -0.21261,0.37798 -0.44885,1.01581 -0.77958,0.94494 -0.33072,-0.0709 -0.51971,-0.82682 -0.51971,-1.06305 0,-0.23624 -0.23624,-1.2993 -0.23624,-1.2993 z"
       id="path5363"
       inkscape:connector-curvature="0"
       inkscape:label="beard" />
  </g>
</svg>
